<svg xmlns="http://www.w3.org/2000/svg" viewBox="0 0 300 300" width="512" height="512"><circle cx="110" cy="110" r="84" fill="#d8d8d8"/><path d="M194 110h4c-.003-48.603-39.397-87.998-88-88-48.603.002-87.998 39.397-88 88 .003 48.602 39.397 87.997 88 87.999 48.603-.002 87.997-39.397 88-87.999h-8c-.002 22.104-8.948 42.078-23.431 56.568-14.49 14.484-34.465 23.43-56.569 23.432-22.104-.003-42.079-8.948-56.569-23.432C38.948 152.079 30.002 132.104 30 110c.002-22.104 8.948-42.079 23.431-56.569C67.921 38.948 87.896 30.002 110 30c22.104.003 42.079 8.948 56.569 23.432C181.052 67.921 189.998 87.896 190 110h4z" fill="#54596e"/><path d="M133.377 155.311c-5.261-5.716-13.856-9-23.504-9.034-9.554.032-18.07 3.255-23.348 8.861a4 4 0 005.859 5.447c3.187-3.5 9.792-6.342 17.488-6.31 7.774-.034 14.432 2.869 17.582 6.413a4 4 0 005.923-5.377z" fill="#54596e"/><circle cx="74" cy="110" r="8" fill="#54596e"/><circle cx="146" cy="110" r="8" fill="#54596e"/><circle cx="146" cy="134" r="8" fill="#adadad"/><circle cx="74" cy="134" r="8" fill="#adadad"/><circle cx="190" cy="190" r="84" fill="#fff35f"/><path d="M274 190h4c-.003-48.603-39.397-87.998-88-88-48.603.002-87.998 39.397-88 88 .003 48.602 39.397 87.997 88 87.999 48.603-.002 87.997-39.397 88-87.999h-8c-.002 22.104-8.948 42.078-23.431 56.568-14.49 14.484-34.465 23.43-56.569 23.432-22.104-.003-42.079-8.948-56.569-23.432C118.948 232.079 110.002 212.104 110 190c.002-22.104 8.948-42.079 23.431-56.569C147.921 118.948 167.896 110.002 190 110c22.104.003 42.079 8.948 56.569 23.432C261.052 147.921 269.998 167.896 270 190h4z" fill="#54596e"/><path d="M166.495 196.966c5.262 5.715 13.857 8.999 23.505 9.033 9.554-.032 18.07-3.255 23.346-8.861a4 4 0 10-5.861-5.445c-3.185 3.498-9.79 6.34-17.486 6.308-7.774.034-14.433-2.869-17.585-6.414a4 4 0 00-5.651-.271 4 4 0 00-.268 5.65z" fill="#54596e"/><circle cx="154" cy="154" r="8" fill="#54596e"/><circle cx="226" cy="154" r="8" fill="#54596e"/><circle cx="226" cy="178" r="8" fill="#ff927d"/><circle cx="154" cy="178" r="8" fill="#ff927d"/></svg>